<?xml version="1.0" encoding="utf-8"?>
<!-- Generator: Adobe Illustrator 23.0.1, SVG Export Plug-In . SVG Version: 6.00 Build 0)  -->
<svg version="1.1" id="One_line_x2C__cmyk_x2C__positive"
	 xmlns="http://www.w3.org/2000/svg" xmlns:xlink="http://www.w3.org/1999/xlink" x="0px" y="0px" viewBox="0 0 251.0362 73.2756"
	 style="enable-background:new 0 0 251.0362 73.2756;" xml:space="preserve">
<style type="text/css">
	.st0{fill:#0051A5;}
	.st1{fill:#FEDF01;}
	.st2{fill:#FFFFFF;}
</style>
<g id="Layer_2_2_">
	<g>
		<g>
			<g>
				<g>
					<g>
						<g>
							<path class="st0" d="M55.4572,63.8738c0,2.3854-0.9781,3.7683-2.8868,4.5023c-7.4162,2.8605-16.1999,4.335-24.5554,4.335
								c-8.3545,0-17.138-1.4745-24.5564-4.335c-1.9078-0.734-2.8859-2.1169-2.8859-4.5023V0.5644h54.8845V63.8738z"/>
							<g>
								<g>
									<path class="st1" d="M15.2919,39.145c-7.5972-4.7429-10.1085-6.8441-10.3211-9.9551
										c-0.0357-0.633,0.1073-1.6983,0.3724-2.4599l-0.7161-0.4753c-0.5742,0.9119-0.9372,2.1139-0.9372,3.2182
										c-0.001,1.7973,0.5753,3.1581,1.2809,4.2456c1.0685,1.6447,2.1917,2.6763,4.9566,4.7502
										c2.9826,2.2381,5.0154,4.8494,6.1868,7.5817h0.4239v-3.1015c4.0289,2.2863,7.5815,4.4392,9.3273,8.2829h0.4239
										C25.6046,47.2469,23.3519,44.176,15.2919,39.145z"/>
									<path class="st1" d="M50.2936,51.2383h-0.5143c0-2.8364-2.5997-3.6094-5.3236-3.6094h-8.5089
										c0.2733,1.3977,0.4017,3.0341,0.1883,4.5799h-0.4228c-0.7888-6.3721-4.3897-9.5291-9.423-12.907v2.8993h-0.4239
										c-1.3366-2.9919-4.2781-5.8009-7.0619-7.7927h0.0011c-0.7416-0.529-1.5071-1.0769-2.2665-1.6176v3.1278h-0.4239
										c-1.1798-3.1026-3.3231-5.4173-6.3783-8.1726c-3.299-2.971-4.6315-4.7484-5.4024-6.7928
										c-0.4691-1.2378-0.6005-2.2389-0.6183-3.5988c-0.0304-2.4314,1.199-4.6272,2.7312-5.4498v1.1779
										c-0.7603,1.0076-1.1538,2.2801-1.1557,3.5737c-0.0022,1.1925,0.2817,2.5208,0.8781,3.6535
										c1.8572,3.5378,8.1156,7.8802,12.0909,10.5451c12.3592,8.2892,14.8264,9.7363,16.8794,14.1355
										c0.2281,0.49,0.4564,1.1495,0.6466,1.913c1.786-0.2757,8.2621-1.261,9.4568-1.4504
										c0.2281-0.0357,0.7067-0.0967,0.9537-0.1113c1.1148-0.7058,1.9867-1.604,2.7524-2.725l-4.7378-0.3681
										c-0.244,0.5438-0.487,1.0002-0.7004,1.3661h-0.3849c0.1292-0.4815,0.2419-0.9558,0.3375-1.4238l-1.2094-0.0894v-0.2578
										l1.3115-0.162c0.2492-1.3408,0.3692-2.6081,0.3944-3.7933l-5.9672-0.3375c-0.0327,0.6119-0.0379,1.1882-0.0179,1.7226
										h-0.3818c-0.1273-0.5953-0.2273-1.1863-0.304-1.7638l-1.3071-0.0745v-0.3986l1.2419-0.0672
										c-0.1734-1.5788-0.185-3.0531-0.1208-4.3182l-3.4886-0.1609c0.1642,0.3069,0.3345,0.6183,0.4545,0.9558
										c0.753,2.1054,0.5742,4.5737,0.325,5.7074h-0.4228c-0.061-1.3136-0.5027-2.9225-0.9214-3.9048
										c-0.9654-2.2747-3.1319-4.2844-6.76-6.617v2.9068h-0.4239c-1.2074-3.8198-4.212-5.9441-8.6794-8.2388
										c-3.686-1.8919-4.8323-4.1711-4.6243-7.7003l1.2454,0.7372c0.3185,3.3012,2.8551,5.2047,5.5086,5.1847
										c1.5617-0.0106,3.0257-0.2177,4.4412-0.5016c2.0422-0.4123,3.9322-0.7646,5.5107-0.2051v-1.9498h-1.2399
										c-0.4429,0.3827-1.3419,0.8288-2.665,0.8486c-1.4544,0.0273-4.2066-0.8107-4.2066-3.8859
										c0-2.6701,2.2611-3.0961,4.1016-3.0961c0.9832,0,2.6207-0.0369,3.1749-0.0683c0.4122-0.0241,0.7204-0.0873,0.9201-0.285
										c0.2093-0.205,0.2724-0.4165,0.3209-0.689c0.0577-0.3312,0.0577-0.6709,0.0577-1.243c0-0.2104,0-1.9498,0-1.9498h-8.528
										v3.377l-3.2264-1.2273V9.8382h1.5449v-1.342h-5.7526V5.6914h-1.9626c-1.0496,0-2.2567,0.734-2.341,2.1579
										c-0.082,1.3651,0.5322,2.5146,1.9372,2.5146h0.2524v1.6343h-0.2524c-2.4619,0-4.318-1.8499-4.318-4.3044
										c0-2.5577,2.179-4.5054,4.8123-4.5054h4.1605v2.8047h16.1756c0,0,0,3.3529,0,4.1446c0,0.6983-0.0377,1.6365-0.1062,2.2297
										c-0.0474,0.4301-0.2007,1.2072-1.0179,1.8309c-0.4923,0.3754-1.2358,0.5269-2.443,0.5322
										c-0.3933,0.002-1.5407-0.0178-2.9152-0.102c-1.8426-0.1157-2.3654,0.5942-2.4399,1.2545c-0.017,0.14-0.0148,0.2755,0,0.406
										c0.8633-0.6689,2.0843-1.14,3.4716-0.7047c2.4409,0.7679,3.137,0.8361,4.4075-0.1628l0.1292,0.286
										c-0.1367,0.2124-0.3816,0.5163-0.7383,0.7866h1.179v6.3867l3.6703-2.1991h10.3011c0,0,4.355,2.2749,5.0712,2.6503
										c0.6321,0.3324,0.8813,0.7341,0.9802,1.3242c0.082,0.4932-0.0453,1.1178-0.2882,1.5174
										c-0.1514,0.2494-1.3345,2.1887-1.9604,3.2245c1.751,1.8951,2.9333,4.5464,2.9333,7.4993
										c0,2.6755-0.9897,6.1272-4.2047,8.6922c1.4135,0.4626,2.3201,1.2326,3.03,2.2473L50.2936,51.2383z M27.324,16.84
										c-1.4469-0.3175-2.2535-0.1387-3.0856,0.6543c0.4071,0.1945,0.9171,0.3007,1.4808,0.2598
										C26.5312,17.6973,27.0369,17.2103,27.324,16.84z M26.4881,26.0422l4.0761-2.4431
										c-0.7993-0.3984-1.6847-0.6509-2.7353-0.6647c-1.4039-0.0219-3.7755,0.6248-4.9228,0.8004
										C23.4183,24.0851,25.2398,25.2492,26.4881,26.0422z M44.6913,26.301l0.5648-0.792l-0.8749-1.1682l0.146-0.2578
										l2.461,1.3274l-0.5363,1.6267c0.3954,0.1894,0.7613,0.4312,1.2483,0.7541l1.5891-2.6135l-4.1164-2.1516H36.075
										l-7.3827,4.4422c1.3871,0.9634,2.6628,2.0046,3.5693,3.0531c1.9783-2.8784,5.455-4.7158,8.8962-4.7158
										C42.2831,25.8055,43.5944,25.9254,44.6913,26.301z M43.95,36.6147c-0.0463-1.3588-0.2178-2.5882-0.445-3.6724
										l-4.8198-0.2187c-0.3323,1.467-0.5488,2.8995-0.652,4.2045L43.95,36.6147z M45.5737,33.0381
										c0.1547,1.2441,0.1704,2.4103,0.0916,3.4872l4.7754-0.2535c-0.1219-1.0842-0.4301-2.1116-0.8927-3.0508L45.5737,33.0381z
										 M43.138,31.4741c-0.4973-1.7237-1.0926-2.9227-1.406-3.4874c-0.1999-0.0115-0.4017-0.0168-0.6048-0.0168
										c-0.3354,0-0.6731,0.043-0.999,0.0788c-0.4837,1.2052-0.8761,2.4241-1.1968,3.6589L43.138,31.4741z M44.4641,28.5809
										c0.3556,0.955,0.6238,1.8824,0.8204,2.7743l2.9195-0.1609C47.2008,30.0408,45.9186,29.1343,44.4641,28.5809z
										 M49.8351,40.896c0.3418-0.8288,0.5615-1.627,0.6216-2.6365l-4.9629-0.2819c-0.224,1.3892-0.5942,2.5988-0.9886,3.5893
										L49.8351,40.896z M37.5936,28.7724c-1.6627,0.7456-2.8079,1.7562-3.8301,3.2085l3.3968-0.1777
										C37.2824,30.2952,37.4801,29.2941,37.5936,28.7724z"/>
								</g>
								<g>
									<path class="st2" d="M31.2898,58.5694c1.3841-0.2251,2.7082-1.302,2.7082-2.9301c0-1.468-0.6237-3.0804-4.9449-3.0804
										c-3.2318,0-7.2903,0-7.2903,0v0.1178c0.2208,0.0675,0.5691,0.2462,0.7972,0.4724
										c0.4954,0.4837,0.6584,1.2072,0.6825,2.1663v10.9142c0,0,3.9943,0,6.0419,0c3.3234,0,5.7285-1.2673,5.7285-4.1708
										C35.0129,59.6978,33.1755,58.6923,31.2898,58.5694z M28.1812,53.862c1.546,0,2.5945,0.3345,2.5945,1.9856
										c0,1.7595-1.4051,2.2443-3.0078,2.2443c-0.7771,0-1.3808,0-1.3808,0V53.862C26.3871,53.862,27.2514,53.862,28.1812,53.862z
										 M28.3369,64.9371c-0.6543,0-1.9498,0-1.9498,0V59.356c0,0,1.0601,0,1.8602,0c2.5558,0,3.5368,0.7613,3.5368,2.6776
										C31.7841,64.1064,30.5044,64.9371,28.3369,64.9371z"/>
									<path class="st2" d="M16.3826,66.2297h3.9363l-5.0291-6.4289c2.0161-0.5395,3.5262-1.6416,3.5262-3.6449
										c0-2.3526-1.4071-3.5969-5.0891-3.5969c-3.2643,0-7.6044,0-7.6044,0v0.1178c0.2797,0.1,0.5931,0.2809,0.7982,0.4827
										c0.5322,0.5249,0.6909,1.3263,0.6909,2.4095c0,0.0032,0,10.6607,0,10.6607h3.1582v-6.0597c0,0,0.6857,0,1.1527,0
										L16.3826,66.2297z M10.7698,53.862c0,0,1.1998,0,2.1275,0c1.7711,0,2.6955,0.5173,2.6955,2.4
										c0,1.6785-1.2096,2.6722-3.1489,2.6722c-0.7771,0-1.6741,0-1.6741,0V53.862z"/>
									<path class="st2" d="M47.7823,54.4321c0.8445,0.4794,1.101,1.1051,1.1062,1.1105
										c0.0411,0.0463,0.1316,0.0315,0.1316,0.0315l0.6877-2.3378c0,0-1.2346-0.8865-4.1709-0.8865
										c-4.4444,0-7.7718,2.2389-7.7718,7.1375c0,5.5203,3.9636,6.9536,7.4574,6.9536c3.2507,0,4.5273-1.0336,4.5273-1.0336
										v-1.6039c0,0-1.1484,1.0728-3.6102,1.0728c-2.035,0-5.0187-0.9287-5.0828-5.4677c-0.0599-4.1887,1.7667-5.556,4.215-5.556
										C46.6358,53.8526,47.3183,54.1713,47.7823,54.4321z"/>
								</g>
							</g>
						</g>
					</g>
				</g>
			</g>
		</g>
	</g>
</g>
<g>
	<g>
		<path class="st0" d="M62.5702,71.6174c-1.8741,0-3.4138-1.5113-3.4138-3.4295c0-1.9089,1.5397-3.4306,3.4138-3.4306
			c1.8697,0,3.4095,1.5217,3.4095,3.4306C65.9797,70.1061,64.4399,71.6174,62.5702,71.6174z M62.5702,65.4389
			c-1.4618,0-2.6292,1.2188-2.6292,2.7491c0,1.5322,1.1674,2.7659,2.6292,2.7659c1.4555,0,2.6376-1.2337,2.6376-2.7659
			C65.2078,66.6576,64.0257,65.4389,62.5702,65.4389z M62.7993,66.2424c0.6837,0,1.1338,0.451,1.1338,1.123
			c0,0.5828-0.387,1.0538-0.8561,1.0622c0.0695,0.0631,0.1094,0.1,0.1557,0.1663c0.2208,0.2765,0.9192,1.4932,0.9192,1.4932h-0.9108
			c-0.1473-0.2586-0.2102-0.3586-0.3597-0.6362c-0.3786-0.6899-0.4984-0.8749-0.6373-0.9412
			c-0.0379-0.0095-0.0694-0.0274-0.1219-0.0274v1.6048h-0.751v-3.8447H62.7993z M62.1222,67.9008h0.2608
			c0.3324,0,0.4775-0.0368,0.5805-0.1284c0.0926-0.0904,0.1451-0.2302,0.1451-0.387c0-0.2387-0.0863-0.3974-0.2735-0.47
			c-0.0821-0.0284-0.2481-0.0558-0.4331-0.0558h-0.2798V67.9008z"/>
	</g>
</g>
<g>
	<path class="st0" d="M85.5114,19.7137h-2.7178V8.784c0-0.8931,0-1.6069-0.3564-2.063c-0.1982-0.2578-0.5752-0.4761-0.9131-0.4961
		V6.0462h3.9873V19.7137z"/>
	<path class="st0" d="M95.3454,19.7137v-5.7725c0-1.0117-0.1182-1.7651-0.416-2.2217c-0.377-0.6147-0.9922-0.853-1.7061-0.853
		s-1.3691,0.2578-1.8047,0.4761v8.3711h-2.5195V9.4187h0.5752c0.4756,0.2183,0.7334,0.2974,0.9922,0.2974
		c0.3564,0,0.6738-0.0791,1.0508-0.1982c0.5156-0.1787,1.1309-0.4165,2.123-0.4165c1.5664,0,2.8164,0.6543,3.5498,1.7852
		c0.4961,0.7539,0.6748,1.7456,0.6748,2.8765v5.9507H95.3454z"/>
	<path class="st0" d="M105.6403,19.7137h-2.083L99.3512,9.4187h2.7979l2.9746,7.6172c1.6465-3.8882,2.083-6.2886,2.2617-7.6172
		h2.499L105.6403,19.7137z"/>
	<path class="st0" d="M116.0934,20.0906c-3.0752,0-5.2568-2.3608-5.2568-5.4551c0-3.1343,2.2412-5.4751,5.2168-5.4751
		c2.4395,0,4.6221,1.5278,4.6221,4.4834c0,0.1982-0.0205,0.6543-0.0596,1.0117l-7.1416,0.1387
		c0.1982,2.1821,1.4482,3.7095,3.1143,3.7095c0.9521,0,1.9443-0.3569,3.0947-1.0513l0.7139,1.2295
		C118.8307,19.7732,117.4616,20.0906,116.0934,20.0906z M117.9382,13.1873c0.0195-1.666-0.833-2.5391-1.8447-2.5391
		c-1.21,0-2.2617,1.0317-2.4795,2.7378L117.9382,13.1873z"/>
	<path class="st0" d="M129.5807,12.2156c-0.7939-0.8335-1.8047-1.5674-2.7568-1.5674c-0.9131,0-1.5674,0.4565-1.5674,1.1309
		c0,0.8726,1.1104,1.1704,2.2607,1.6265c1.6074,0.6348,3.5117,1.4482,3.5117,3.3525c0,2.1025-2.0635,3.3325-4.1856,3.3325
		c-1.4482,0-3.1738-0.5952-4.2852-1.3091l1.0322-1.8447c0.8525,0.813,2.1621,1.666,3.2529,1.666
		c1.0117,0,1.7061-0.4561,1.7061-1.1704c0-0.853-1.2305-1.2495-2.4004-1.7651c-1.5273-0.6748-3.3721-1.4482-3.3721-3.333
		c0-1.9834,2.0625-3.1738,4.1455-3.1738c1.4883,0,2.7969,0.5952,3.7295,1.0913L129.5807,12.2156z"/>
	<path class="st0" d="M139.3591,18.7815c-0.9717,0.6348-2.3799,1.1899-3.6104,1.1899c-0.6543,0-1.2891-0.1982-1.7256-0.6943
		c-0.377-0.436-0.5752-1.1108-0.5752-2.0229V6.4431l2.499-0.6147v3.5903h2.8174v1.5273h-2.8174v6.1294
		c0,0.7734,0.3975,1.0312,0.9131,1.0312c0.6348,0,1.5869-0.377,2.0234-0.5752L139.3591,18.7815z"/>
	<path class="st0" d="M145.8854,20.0906c-2.877,0-5.1777-2.2612-5.1777-5.4751c0-3.1738,2.3008-5.4551,5.1777-5.4551
		c2.8564,0,5.1768,2.2812,5.1768,5.4551C151.0622,17.8294,148.7419,20.0906,145.8854,20.0906z M145.8854,10.6482
		c-1.4482,0-2.5596,1.5278-2.5596,3.9673c0,2.4204,1.0918,3.9873,2.5596,3.9873s2.5391-1.5669,2.5391-3.9873
		C148.4245,12.1761,147.3532,10.6482,145.8854,10.6482z"/>
	<path class="st0" d="M159.5309,11.3821c-0.7734-0.3369-1.3682-0.5156-1.9238-0.5156s-1.0713,0.1587-1.7451,0.5156v8.3315h-2.5195
		V9.4187h0.5752c0.3965,0.2183,0.7139,0.2974,0.9922,0.2974c0.3369,0,0.6543-0.0791,1.0703-0.2183
		c0.6943-0.2183,1.3887-0.377,2.123-0.377c0.6348,0,1.3291,0.0991,2.1816,0.397L159.5309,11.3821z"/>
	<path class="st0" d="M176.8464,16.5198l0.3574,0.377c0.5352,0.5952,1.2695,1.4282,2.1221,2.2021v0.6147h-2.8564l-1.249-1.3887
		c-0.7344,0.7539-2.1025,1.686-4.3242,1.686c-2.6582,0-4.7021-1.7651-4.7021-3.9077c0-1.8647,1.0322-3.3921,3.1152-4.4829
		c-0.5166-0.5952-1.1709-1.4878-1.1709-2.7178c0-2.0229,1.9443-3.2334,4.126-3.2334c1.1709,0,2.5195,0.397,3.7295,1.0913
		l-0.873,1.9438c-0.6152-0.6743-1.9043-1.6064-2.9951-1.6064c-0.833,0-1.5273,0.5552-1.5273,1.4478
		c0,0.9321,0.8926,1.9639,1.9434,3.1538l3.1738,3.5908c0.3379-0.6943,0.7344-1.8052,0.7344-3.1938h2.2412
		C178.4138,13.6038,177.5807,15.4886,176.8464,16.5198z M170.32,12.8108c-0.6738,0.3765-1.6064,1.2495-1.6064,2.5981
		c0,1.7856,1.6865,2.7573,2.9561,2.7573c1.0508,0,1.9238-0.5156,2.499-1.0312L170.32,12.8108z"/>
</g>
<g>
	<path class="st0" d="M86.9313,30.7913V42.971h-2.7568V30.7913h-3.9678v-1.4878h10.6924v1.4878H86.9313z"/>
	<path class="st0" d="M97.8014,34.6394c-0.7734-0.3369-1.3691-0.5156-1.9238-0.5156c-0.5557,0-1.0713,0.1587-1.7461,0.5156v8.3315
		H91.612V32.6761h0.5752c0.3975,0.2183,0.7148,0.2974,0.9922,0.2974c0.3369,0,0.6543-0.0791,1.0713-0.2183
		c0.6943-0.2183,1.3887-0.377,2.1221-0.377c0.6348,0,1.3291,0.0991,2.1826,0.397L97.8014,34.6394z"/>
	<path class="st0" d="M104.5446,43.3479c-3.0742,0-5.2568-2.3608-5.2568-5.4551c0-3.1343,2.2422-5.4751,5.2168-5.4751
		c2.4404,0,4.6221,1.5278,4.6221,4.4834c0,0.1982-0.0195,0.6543-0.0596,1.0117l-7.1406,0.1387
		c0.1982,2.1821,1.4482,3.7095,3.1143,3.7095c0.9521,0,1.9443-0.3569,3.0947-1.0513l0.7139,1.2295
		C107.2819,43.0305,105.9137,43.3479,104.5446,43.3479z M106.3893,36.4446c0.0195-1.666-0.833-2.5391-1.8447-2.5391
		c-1.21,0-2.2617,1.0317-2.4795,2.7378L106.3893,36.4446z"/>
	<path class="st0" d="M120.5915,42.971h-0.5752c-0.377-0.1982-0.6553-0.2974-1.0117-0.2974c-0.2783,0-0.5957,0.1187-0.9521,0.2578
		c-0.5361,0.1982-1.21,0.4165-2.043,0.4165c-1.9248,0-3.4316-0.9521-4.2256-2.3804c-0.4756-0.873-0.6748-1.9438-0.6748-3.0151
		c0-2.1426,0.8535-3.5903,2.123-4.5825c0.8926-0.6743,2.0625-0.9917,3.1543-0.9917c0.9121,0,1.9043,0.2578,2.459,0.4565
		l1.7461-0.397V42.971z M116.4655,33.9456c-1.4082,0-2.7373,1.2295-2.7373,3.8877c0,1.5669,0.377,2.7373,1.1504,3.3921
		c0.3564,0.3374,0.833,0.5752,1.4082,0.5752c0.6943,0,1.4482-0.3569,1.7656-0.6543v-6.7446
		C117.5563,34.0843,116.9411,33.9456,116.4655,33.9456z"/>
	<path class="st0" d="M130.0915,35.4729c-0.793-0.8335-1.8047-1.5674-2.7568-1.5674c-0.9121,0-1.5674,0.4565-1.5674,1.1309
		c0,0.8726,1.1113,1.1704,2.2617,1.6265c1.6064,0.6348,3.5107,1.4482,3.5107,3.3525c0,2.1025-2.0625,3.3325-4.1856,3.3325
		c-1.4473,0-3.1738-0.5952-4.2842-1.3091l1.0312-1.8447c0.8535,0.813,2.1621,1.666,3.2529,1.666
		c1.0117,0,1.7061-0.4561,1.7061-1.1704c0-0.853-1.2295-1.2495-2.4004-1.7651c-1.5273-0.6748-3.3721-1.4482-3.3721-3.333
		c0-1.9834,2.0635-3.1738,4.1465-3.1738c1.4873,0,2.7969,0.5952,3.7285,1.0913L130.0915,35.4729z"/>
	<path class="st0" d="M142.8464,42.971h-0.5957c-0.4756-0.2183-0.7139-0.2974-0.9912-0.2974c-0.3574,0-0.6748,0.0991-1.0322,0.1982
		c-0.5352,0.1787-1.1299,0.4165-2.1416,0.4165c-1.5479,0-2.7969-0.6548-3.5312-1.7852c-0.4961-0.7539-0.6943-1.7456-0.6943-2.8765
		v-5.9507h2.5195v5.772c0,1.0317,0.1387,1.7656,0.416,2.2217c0.377,0.6152,1.0117,0.853,1.7061,0.853
		c0.7139,0,1.3887-0.2578,1.8252-0.4761v-8.3706h2.5195V42.971z"/>
	<path class="st0" d="M151.9499,34.6394c-0.7734-0.3369-1.3682-0.5156-1.9238-0.5156s-1.0713,0.1587-1.7451,0.5156v8.3315h-2.5195
		V32.6761h0.5752c0.3965,0.2183,0.7139,0.2974,0.9922,0.2974c0.3369,0,0.6543-0.0791,1.0703-0.2183
		c0.6943-0.2183,1.3887-0.377,2.123-0.377c0.6348,0,1.3291,0.0991,2.1816,0.397L151.9499,34.6394z"/>
	<path class="st0" d="M160.0427,42.9114c-0.5752,1.4282-1.5674,3.6895-3.1943,5.6338l-1.8447-1.5479
		c1.8848-1.6064,2.6777-2.6772,3.2529-4.0264l-4.4434-10.2949h2.7979l2.9746,7.4585c1.627-3.8882,2.0039-6.1299,2.1826-7.4585h2.46
		L160.0427,42.9114z"/>
	<path class="st0" d="M178.489,32.3186c-0.873-1.0312-2.123-1.9238-3.3926-1.9238s-2.2012,0.853-2.2012,1.9834
		c0,1.3291,1.5078,1.9043,2.9951,2.4995c1.9238,0.7935,4.1064,1.8252,4.1064,4.1655c0,2.6582-2.4004,4.2847-4.9395,4.2847
		c-1.666,0-3.71-0.6943-4.9795-1.5669l1.0322-1.9639c1.0117,1.0117,2.6182,2.1025,4.0264,2.1025
		c1.3887,0,2.4199-0.8926,2.4199-2.0229c0-1.3887-1.5869-2.0039-3.2129-2.7178c-1.9248-0.8135-4.0078-1.8647-4.0078-4.126
		c0-2.5195,2.46-4.0864,4.9004-4.0864c1.7451,0,3.2334,0.6548,4.3242,1.3291L178.489,32.3186z"/>
	<path class="st0" d="M187.238,43.3479c-3.0752,0-5.2568-2.3608-5.2568-5.4551c0-3.1343,2.2412-5.4751,5.2168-5.4751
		c2.4395,0,4.6221,1.5278,4.6221,4.4834c0,0.1982-0.0205,0.6543-0.0596,1.0117l-7.1416,0.1387
		c0.1982,2.1821,1.4482,3.7095,3.1143,3.7095c0.9521,0,1.9443-0.3569,3.0947-1.0513l0.7139,1.2295
		C189.9753,43.0305,188.6061,43.3479,187.238,43.3479z M189.0827,36.4446c0.0195-1.666-0.833-2.5391-1.8447-2.5391
		c-1.21,0-2.2617,1.0317-2.4795,2.7378L189.0827,36.4446z"/>
	<path class="st0" d="M200.5466,34.6394c-0.7734-0.3369-1.3682-0.5156-1.9238-0.5156s-1.0713,0.1587-1.7451,0.5156v8.3315h-2.5195
		V32.6761h0.5752c0.3965,0.2183,0.7139,0.2974,0.9922,0.2974c0.3369,0,0.6543-0.0791,1.0703-0.2183
		c0.6943-0.2183,1.3887-0.377,2.123-0.377c0.6348,0,1.3291,0.0991,2.1816,0.397L200.5466,34.6394z"/>
	<path class="st0" d="M208.6989,42.971h-2.083l-4.2061-10.2949h2.7979l2.9746,7.6172c1.6465-3.8882,2.083-6.2886,2.2617-7.6172h2.5
		L208.6989,42.971z"/>
	<path class="st0" d="M216.0788,30.8308c-0.8135,0-1.4678-0.6543-1.4678-1.4678c0-0.813,0.6543-1.4678,1.4678-1.4678
		s1.4873,0.6548,1.4873,1.4678C217.5661,30.1765,216.8923,30.8308,216.0788,30.8308z M214.8288,42.971V32.6761h2.5195V42.971
		H214.8288z"/>
	<path class="st0" d="M228.9518,41.9392c-0.6943,0.5161-1.8643,1.4087-3.9277,1.4087c-2.876,0-5.2568-2.1621-5.2568-5.3359
		c0-3.313,2.2021-5.5942,5.3164-5.5942c1.4482,0,2.6582,0.4961,3.7695,1.1309l-0.9922,1.9639
		c-1.25-1.1904-1.9043-1.6069-2.8965-1.6069c-1.1299,0-2.5586,1.1509-2.5586,3.6104c0,2.7373,1.5469,4.2451,3.0742,4.2451
		c0.5957,0,1.6074-0.2383,2.7979-1.0317L228.9518,41.9392z"/>
	<path class="st0" d="M235.5768,43.3479c-3.0742,0-5.2568-2.3608-5.2568-5.4551c0-3.1343,2.2422-5.4751,5.2178-5.4751
		c2.4395,0,4.6221,1.5278,4.6221,4.4834c0,0.1982-0.0205,0.6543-0.0596,1.0117l-7.1416,0.1387
		c0.1982,2.1821,1.4482,3.7095,3.1143,3.7095c0.9521,0,1.9443-0.3569,3.0947-1.0513l0.7139,1.2295
		C238.3141,43.0305,236.946,43.3479,235.5768,43.3479z M237.4216,36.4446c0.0205-1.666-0.833-2.5391-1.8447-2.5391
		c-1.21,0-2.2607,1.0317-2.4795,2.7378L237.4216,36.4446z"/>
	<path class="st0" d="M249.0153,35.4729c-0.793-0.8335-1.8047-1.5674-2.7568-1.5674c-0.9131,0-1.5674,0.4565-1.5674,1.1309
		c0,0.8726,1.1113,1.1704,2.2617,1.6265c1.6064,0.6348,3.5107,1.4482,3.5107,3.3525c0,2.1025-2.0635,3.3325-4.1855,3.3325
		c-1.4482,0-3.1738-0.5952-4.2842-1.3091l1.0312-1.8447c0.8525,0.813,2.1621,1.666,3.2529,1.666
		c1.0117,0,1.7061-0.4561,1.7061-1.1704c0-0.853-1.2295-1.2495-2.4004-1.7651c-1.5273-0.6748-3.3721-1.4482-3.3721-3.333
		c0-1.9834,2.0635-3.1738,4.1455-3.1738c1.4883,0,2.7969,0.5952,3.7295,1.0913L249.0153,35.4729z"/>
</g>
</svg>
